<?xml version="1.0" encoding="utf-8"?>
<!-- Generator: Adobe Illustrator 16.0.0, SVG Export Plug-In . SVG Version: 6.00 Build 0)  -->
<!DOCTYPE svg PUBLIC "-//W3C//DTD SVG 1.1//EN" "http://www.w3.org/Graphics/SVG/1.1/DTD/svg11.dtd">
<svg version="1.1" id="Vrstva_1" xmlns="http://www.w3.org/2000/svg" xmlns:xlink="http://www.w3.org/1999/xlink" x="0px" y="0px"
	 width="156.536px" height="56.692px" viewBox="49.292 85.039 156.536 56.692"
	 enable-background="new 49.292 85.039 156.536 56.692" xml:space="preserve">
<polygon fill="#FFFFFF" points="67.439,106.565 67.439,128.379 63.799,128.379 63.799,97.619 84.554,119.84 84.554,97.947 
	88.194,97.947 88.194,128.703 "/>
<path fill="#FFFFFF" d="M110.998,128.379c-3.337,0-6.463-1.313-8.802-3.697c-2.377-2.331-3.688-5.47-3.688-8.836v-17.9h3.64v17.9
	c0,1.765,0.516,3.511,1.453,4.917c0.972,1.457,2.368,2.617,3.931,3.265c1.116,0.479,2.249,0.71,3.466,0.71
	c1.092,0,4.846-0.288,7.313-4.016c0.979-1.448,1.455-3.044,1.455-4.877v-11.988h3.64v11.988c0,3.347-1.296,6.486-3.65,8.84
	C117.452,127.033,114.261,128.379,110.998,128.379z"/>
<path fill="#FFFFFF" d="M133.262,128.379v-3.641h10.172c1.553,0,3.028-0.301,4.517-0.919c1.332-0.57,2.534-1.383,3.676-2.48
	c1.127-1.127,1.973-2.359,2.506-3.659c0.584-1.361,0.879-2.88,0.879-4.516c0-3.173-1.172-6.002-3.391-8.181
	c-1.047-1.048-2.285-1.882-3.677-2.479c-1.483-0.617-2.957-0.917-4.51-0.917h-6.585v12.914h-3.643V97.947h10.228
	c8.366,0,15.175,6.826,15.175,15.217c0,8.39-6.809,15.216-15.175,15.216H133.262z"/>
<polygon fill="#FFFFFF" points="164.479,128.379 177.936,97.788 191.36,128.312 187.361,128.312 177.936,106.889 168.479,128.379 
	"/>
<polygon fill="#FFFFFF" points="49.292,85.039 49.292,141.732 168.473,141.732 168.473,138.206 52.818,138.206 52.818,88.566 
	202.303,88.566 202.303,138.206 187.408,138.206 187.408,141.732 205.828,141.732 205.828,85.039 "/>
</svg>
