<?xml version="1.0" encoding="utf-8"?>
<!-- Generator: Adobe Illustrator 16.0.0, SVG Export Plug-In . SVG Version: 6.00 Build 0)  -->
<!DOCTYPE svg PUBLIC "-//W3C//DTD SVG 1.1//EN" "http://www.w3.org/Graphics/SVG/1.1/DTD/svg11.dtd">
<svg version="1.1" id="Vrstva_1" xmlns="http://www.w3.org/2000/svg" xmlns:xlink="http://www.w3.org/1999/xlink" x="0px" y="0px"
	 width="56.693px" height="166.335px" viewBox="99.213 30.217 56.693 166.335"
	 enable-background="new 99.213 30.217 56.693 166.335" xml:space="preserve">
<g>
	<polygon fill="#FFFFFF" points="119.829,54.05 119.829,73.9 116.517,73.9 116.517,45.908 135.402,66.129 135.402,46.207 
		138.714,46.207 138.714,74.194 	"/>
	<path fill="#FFFFFF" d="M127.654,109.881c-3.038,0-5.883-1.195-8.01-3.364c-2.164-2.122-3.356-4.978-3.356-8.041V82.188h3.313
		v16.288c0,1.606,0.47,3.195,1.322,4.477c0.884,1.325,2.154,2.381,3.577,2.971c1.016,0.436,2.047,0.646,3.155,0.646
		c0.993,0,4.41-0.264,6.654-3.653c0.892-1.318,1.323-2.771,1.323-4.438v-10.91h3.313v10.909c0,3.046-1.181,5.902-3.322,8.045
		C133.527,108.655,130.623,109.881,127.654,109.881z"/>
	<path fill="#FFFFFF" d="M116.107,146.159v-3.313h9.257c1.413,0,2.757-0.273,4.108-0.837c1.213-0.521,2.307-1.258,3.347-2.258
		c1.024-1.025,1.794-2.146,2.28-3.33c0.531-1.238,0.8-2.62,0.8-4.109c0-2.888-1.067-5.462-3.085-7.442
		c-0.954-0.954-2.08-1.714-3.348-2.257c-1.348-0.562-2.69-0.835-4.104-0.835h-5.993v11.752h-3.312v-15.063h9.305
		c7.614,0,13.809,6.212,13.809,13.847s-6.193,13.848-13.809,13.848L116.107,146.159L116.107,146.159z"/>
	<polygon fill="#FFFFFF" points="119.829,162.886 119.829,182.736 116.517,182.736 116.517,154.745 135.402,174.966 
		135.402,155.043 138.714,155.043 138.714,183.031 	"/>
	<polygon fill="#FFFFFF" points="152.697,165.709 152.697,193.343 102.422,193.343 102.422,33.426 152.697,33.426 152.697,154.745 
		155.906,154.745 155.906,30.217 99.213,30.217 99.213,196.552 155.906,196.552 155.906,165.709 	"/>
</g>
</svg>
