<?xml version="1.0" encoding="utf-8"?>
<!-- Generator: Adobe Illustrator 16.0.0, SVG Export Plug-In . SVG Version: 6.00 Build 0)  -->
<!DOCTYPE svg PUBLIC "-//W3C//DTD SVG 1.1//EN" "http://www.w3.org/Graphics/SVG/1.1/DTD/svg11.dtd">
<svg version="1.1" id="Vrstva_1" xmlns="http://www.w3.org/2000/svg" xmlns:xlink="http://www.w3.org/1999/xlink" x="0px" y="0px"
	 width="157.575px" height="56.691px" viewBox="48.772 85.039 157.575 56.691"
	 enable-background="new 48.772 85.039 157.575 56.691" xml:space="preserve">
<g>
	<polygon fill="#FFFFFF" points="66.92,106.565 66.92,128.379 63.28,128.379 63.28,97.618 84.035,119.84 84.035,97.946 
		87.675,97.946 87.675,128.702 	"/>
	<path fill="#FFFFFF" d="M110.662,128.379c-3.338,0-6.464-1.313-8.802-3.697c-2.378-2.331-3.689-5.47-3.689-8.836v-17.9h3.64v17.899
		c0,1.766,0.516,3.512,1.453,4.918c0.972,1.457,2.368,2.617,3.931,3.265c1.116,0.479,2.25,0.711,3.467,0.711
		c1.092,0,4.846-0.289,7.313-4.016c0.979-1.449,1.455-3.044,1.455-4.878v-11.988h3.64v11.988c0,3.348-1.297,6.486-3.651,8.841
		C117.116,127.031,113.924,128.379,110.662,128.379z"/>
	<path fill="#FFFFFF" d="M133.115,128.379v-3.641h10.174c1.553,0,3.028-0.301,4.515-0.92c1.333-0.57,2.534-1.383,3.677-2.48
		c1.127-1.127,1.973-2.359,2.507-3.659c0.583-1.361,0.878-2.88,0.878-4.516c0-3.175-1.171-6.002-3.389-8.181
		c-1.049-1.049-2.286-1.883-3.68-2.479c-1.48-0.617-2.957-0.917-4.508-0.917h-6.586V114.5h-3.642V97.946h10.228
		c8.366,0,15.174,6.826,15.174,15.217c0,8.39-6.808,15.216-15.174,15.216L133.115,128.379L133.115,128.379z"/>
	<polygon fill="#FFFFFF" points="202.82,109.104 202.82,138.205 52.299,138.205 52.299,88.565 202.82,88.565 202.82,97.946 
		206.347,97.946 206.347,85.039 48.772,85.039 48.772,141.731 206.347,141.731 206.347,109.104 	"/>
	<polygon fill="#FFFFFF" points="171.593,106.565 171.593,128.379 167.953,128.379 167.953,97.618 188.708,119.84 188.708,97.946 
		192.348,97.946 192.348,128.702 	"/>
</g>
</svg>
